<svg xmlns="http://www.w3.org/2000/svg" version="1.1" xmlns:xlink="http://www.w3.org/1999/xlink" xmlns:svgjs="http://svgjs.com/svgjs" width="1440" height="560" preserveAspectRatio="none" viewBox="0 0 1440 560"><g mask="url(&quot;#SvgjsMask1180&quot;)" fill="none"><rect width="1440" height="560" x="0" y="0" fill="#1e3266"></rect><path d="M1536 560L0 560 L0 223.96Q62.98 214.94, 72 277.93Q101.79 235.72, 144 265.5Q166.55 216.05, 216 238.6Q271.73 222.32, 288 278.05Q330.17 248.22, 360 290.39Q378.99 237.38, 432 256.36Q461.94 214.3, 504 244.24Q513.44 181.68, 576 191.11Q639.89 183, 648 246.89Q696.44 223.33, 720 271.77Q762.17 241.94, 792 284.12Q811.38 231.5, 864 250.89Q907.51 174.4, 984 217.91Q1080.39 194.31, 1104 290.7Q1121.3 188, 1224 205.3Q1291.41 152.72, 1344 220.13Q1408.12 212.25, 1416 276.37Q1459.49 199.86, 1536 243.34z" fill="rgba(3, 24, 65, 1)"></path><path d="M1488 560L0 560 L0 291.38Q78.06 249.44, 120 327.51Q171.27 258.78, 240 310.05Q316.72 266.77, 360 343.5Q430.53 294.03, 480 364.57Q491.77 304.34, 552 316.1Q617.95 262.05, 672 328Q740.57 276.57, 792 345.14Q812.87 294.01, 864 314.88Q877.46 256.34, 936 269.8Q1007.5 221.31, 1056 292.81Q1103.92 268.73, 1128 316.65Q1188.36 305, 1200 365.36Q1222.43 315.8, 1272 338.23Q1301.7 295.93, 1344 325.63Q1398.06 307.69, 1416 361.74Q1421.12 294.86, 1488 299.97z" fill="rgba(24, 47, 93, 1)"></path><path d="M1536 560L0 560 L0 423.49Q30.22 381.71, 72 411.93Q145.97 365.9, 192 439.88Q219.03 346.91, 312 373.95Q356.97 346.92, 384 391.89Q403.97 339.86, 456 359.83Q498.29 330.12, 528 372.41Q600.77 325.18, 648 397.95Q695.5 373.45, 720 420.96Q746.55 327.51, 840 354.06Q870.58 312.64, 912 343.23Q996.13 307.37, 1032 391.5Q1073.86 361.36, 1104 403.22Q1151.59 330.81, 1224 378.39Q1291.28 325.67, 1344 392.96Q1395.56 372.51, 1416 424.07Q1445.77 333.84, 1536 363.6z" fill="rgba(37, 70, 125, 1)"></path><path d="M1464 560L0 560 L0 500.9Q17.29 398.19, 120 415.47Q190.47 365.94, 240 436.41Q309.08 433.5, 312 502.58Q344.13 414.71, 432 446.84Q450.7 393.54, 504 412.25Q550.42 386.67, 576 433.09Q654.43 391.52, 696 469.96Q740.68 442.64, 768 487.32Q796.14 395.46, 888 423.6Q931.01 394.61, 960 437.62Q1041.37 398.99, 1080 480.36Q1104.91 433.27, 1152 458.18Q1235.79 421.97, 1272 505.76Q1278.93 440.69, 1344 447.63Q1409.13 392.75, 1464 457.88z" fill="rgba(53, 108, 177, 1)"></path><path d="M1536 560L0 560 L0 558.08Q34.4 520.49, 72 554.89Q81.42 492.31, 144 501.73Q214.65 452.38, 264 523.03Q307.33 494.36, 336 537.68Q388.76 518.44, 408 571.2Q426.08 469.28, 528 487.35Q571.16 458.51, 600 501.68Q672.36 454.04, 720 526.4Q809.34 495.74, 840 585.08Q870.16 543.25, 912 573.41Q938.95 480.36, 1032 507.3Q1113.17 468.48, 1152 549.65Q1198.89 476.54, 1272 523.43Q1328.39 507.82, 1344 564.2Q1385.8 534, 1416 575.8Q1438.2 478, 1536 500.21z" fill="white"></path></g><defs><mask id="SvgjsMask1180"><rect width="1440" height="560" fill="#ffffff"></rect></mask></defs></svg>