<?xml version="1.0" encoding="UTF-8" standalone="no" ?>
<!DOCTYPE svg PUBLIC "-//W3C//DTD SVG 1.1//EN" "http://www.w3.org/Graphics/SVG/1.1/DTD/svg11.dtd">
<svg xmlns="http://www.w3.org/2000/svg" xmlns:xlink="http://www.w3.org/1999/xlink" version="1.1" width="1080" height="1080" viewBox="0 0 1080 1080" xml:space="preserve">
<desc>Created with Fabric.js 5.2.4</desc>
<defs>
</defs>
<g transform="matrix(1 0 0 1 540 540)" id="8f95a7c5-98d3-4368-b234-4c10ef212a34"  >
<rect style="stroke: none; stroke-width: 1; stroke-dasharray: none; stroke-linecap: butt; stroke-dashoffset: 0; stroke-linejoin: miter; stroke-miterlimit: 4; fill: rgb(255,255,255); fill-rule: nonzero; opacity: 1; visibility: hidden;" vector-effect="non-scaling-stroke"  x="-540" y="-540" rx="0" ry="0" width="1080" height="1080" />
</g>
<g transform="matrix(1 0 0 1 540 540)" id="7b3c9ccf-6d1d-4978-84f4-437898501132"  >
</g>
<g transform="matrix(-1 0 0 -1 540 540)"  >
<g style="" vector-effect="non-scaling-stroke"   >
		<g transform="matrix(1 0 0 1 -48 -12.54)"  >
<rect style="stroke: none; stroke-width: 1; stroke-dasharray: none; stroke-linecap: butt; stroke-dashoffset: 0; stroke-linejoin: miter; stroke-miterlimit: 4; fill: rgb(30,50,102); fill-rule: nonzero; opacity: 1;" vector-effect="non-scaling-stroke"  x="-720" y="-280" rx="0" ry="0" width="1440" height="560" />
</g>
		<g transform="matrix(1 0 0 1 0 71.23)"  >
<path style="stroke: none; stroke-width: 1; stroke-dasharray: none; stroke-linecap: butt; stroke-dashoffset: 0; stroke-linejoin: miter; stroke-miterlimit: 4; fill: rgb(3,24,65); fill-rule: nonzero; opacity: 1;" vector-effect="non-scaling-stroke"  transform=" translate(-768, -363.77)" d="M 1536 560 L 0 560 L 0 223.96 Q 62.98 214.94 72 277.93 Q 101.79 235.72 144 265.5 Q 166.55 216.05 216 238.6 Q 271.73 222.32 288 278.05 Q 330.17 248.22 360 290.39 Q 378.99 237.38 432 256.36 Q 461.94 214.3 504 244.24 Q 513.44 181.68 576 191.11 Q 639.89 183 648 246.89 Q 696.44 223.33 720 271.77 Q 762.17 241.94 792 284.12 Q 811.38 231.5 864 250.89 Q 907.51 174.4 984 217.91 Q 1080.39 194.31 1104 290.7 Q 1121.3 188 1224 205.3 Q 1291.41 152.72 1344 220.13 Q 1408.12 212.25 1416 276.37 Q 1459.49 199.86 1536 243.34 z" stroke-linecap="round" />
</g>
		<g transform="matrix(1 0 0 1 -24 105.41)"  >
<path style="stroke: none; stroke-width: 1; stroke-dasharray: none; stroke-linecap: butt; stroke-dashoffset: 0; stroke-linejoin: miter; stroke-miterlimit: 4; fill: rgb(24,47,93); fill-rule: nonzero; opacity: 1;" vector-effect="non-scaling-stroke"  transform=" translate(-744, -397.95)" d="M 1488 560 L 0 560 L 0 291.38 Q 78.06 249.44 120 327.51 Q 171.27 258.78 240 310.05 Q 316.72 266.77 360 343.5 Q 430.53 294.03 480 364.57 Q 491.77 304.34 552 316.1 Q 617.95 262.05 672 328 Q 740.57 276.57 792 345.14 Q 812.87 294.01 864 314.88 Q 877.46 256.34 936 269.8 Q 1007.5 221.31 1056 292.81 Q 1103.92 268.73 1128 316.65 Q 1188.36 305 1200 365.36 Q 1222.43 315.8 1272 338.23 Q 1301.7 295.93 1344 325.63 Q 1398.06 307.69 1416 361.74 Q 1421.12 294.86 1488 299.97 z" stroke-linecap="round" />
</g>
		<g transform="matrix(1 0 0 1 0 147.71)"  >
<path style="stroke: none; stroke-width: 1; stroke-dasharray: none; stroke-linecap: butt; stroke-dashoffset: 0; stroke-linejoin: miter; stroke-miterlimit: 4; fill: rgb(37,70,125); fill-rule: nonzero; opacity: 1;" vector-effect="non-scaling-stroke"  transform=" translate(-768, -440.25)" d="M 1536 560 L 0 560 L 0 423.49 Q 30.22 381.71 72 411.93 Q 145.97 365.9 192 439.88 Q 219.03 346.91 312 373.95 Q 356.97 346.92 384 391.89 Q 403.97 339.86 456 359.83 Q 498.29 330.12 528 372.41 Q 600.77 325.18 648 397.95 Q 695.5 373.45 720 420.96 Q 746.55 327.51 840 354.06 Q 870.58 312.64 912 343.23 Q 996.13 307.37 1032 391.5 Q 1073.86 361.36 1104 403.22 Q 1151.59 330.81 1224 378.39 Q 1291.28 325.67 1344 392.96 Q 1395.56 372.51 1416 424.07 Q 1445.77 333.84 1536 363.6 z" stroke-linecap="round" />
</g>
		<g transform="matrix(1 0 0 1 -36 177.76)"  >
<path style="stroke: none; stroke-width: 1; stroke-dasharray: none; stroke-linecap: butt; stroke-dashoffset: 0; stroke-linejoin: miter; stroke-miterlimit: 4; fill: rgb(53,108,177); fill-rule: nonzero; opacity: 1;" vector-effect="non-scaling-stroke"  transform=" translate(-732, -470.3)" d="M 1464 560 L 0 560 L 0 500.9 Q 17.29 398.19 120 415.47 Q 190.47 365.94 240 436.41 Q 309.08 433.5 312 502.58 Q 344.13 414.71 432 446.84 Q 450.7 393.54 504 412.25 Q 550.42 386.67 576 433.09 Q 654.43 391.52 696 469.96 Q 740.68 442.64 768 487.32 Q 796.14 395.46 888 423.6 Q 931.01 394.61 960 437.62 Q 1041.37 398.99 1080 480.36 Q 1104.91 433.27 1152 458.18 Q 1235.79 421.97 1272 505.76 Q 1278.93 440.69 1344 447.63 Q 1409.13 392.75 1464 457.88 z" stroke-linecap="round" />
</g>
		<g transform="matrix(1 0 0 1 0 233.51)"  >
<path style="stroke: none; stroke-width: 1; stroke-dasharray: none; stroke-linecap: butt; stroke-dashoffset: 0; stroke-linejoin: miter; stroke-miterlimit: 4; fill: rgb(255,255,255); fill-rule: nonzero; opacity: 1;" vector-effect="non-scaling-stroke"  transform=" translate(-768, -526.05)" d="M 1536 560 L 0 560 L 0 558.08 Q 34.4 520.49 72 554.89 Q 81.42 492.31 144 501.73 Q 214.65 452.38 264 523.03 Q 307.33 494.36 336 537.68 Q 388.76 518.44 408 571.2 Q 426.08 469.28 528 487.35 Q 571.16 458.51 600 501.68 Q 672.36 454.04 720 526.4 Q 809.34 495.74 840 585.08 Q 870.16 543.25 912 573.41 Q 938.95 480.36 1032 507.3 Q 1113.17 468.48 1152 549.65 Q 1198.89 476.54 1272 523.43 Q 1328.39 507.82 1344 564.2 Q 1385.8 534 1416 575.8 Q 1438.2 478 1536 500.21 z" stroke-linecap="round" />
</g>
</g>
</g>
</svg>