<svg xmlns="http://www.w3.org/2000/svg" version="1.1" xmlns:xlink="http://www.w3.org/1999/xlink" xmlns:svgjs="http://svgjs.com/svgjs" width="1440" height="560" preserveAspectRatio="none" viewBox="0 0 1440 560"><g mask="url(&quot;#SvgjsMask1000&quot;)" fill="none"><rect width="1440" height="560" x="0" y="0" fill="#0e2a47"></rect><path d="M 0,249 C 57.6,226.8 172.8,155.4 288,138 C 403.2,120.6 460.8,182.8 576,162 C 691.2,141.2 748.8,33.4 864,34 C 979.2,34.6 1036.8,164.6 1152,165 C 1267.2,165.4 1382.4,61.8 1440,36L1440 560L0 560z" fill="#184a7e"></path><path d="M 0,447 C 48,439.4 144,408.6 240,409 C 336,409.4 384,463.4 480,449 C 576,434.6 624,337 720,337 C 816,337 864,453.4 960,449 C 1056,444.6 1104,302.8 1200,315 C 1296,327.2 1392,471 1440,510L1440 560L0 560z" fill="#2264ab"></path></g><defs><mask id="SvgjsMask1000"><rect width="1440" height="560" fill="#ffffff"></rect></mask></defs></svg>