<svg xmlns="http://www.w3.org/2000/svg" version="1.1" xmlns:xlink="http://www.w3.org/1999/xlink" xmlns:svgjs="http://svgjs.com/svgjs" width="1440" height="560" preserveAspectRatio="none" viewBox="0 0 1440 560"><g mask="url(&quot;#SvgjsMask1000&quot;)" fill="none"><rect width="1440" height="560" x="0" y="0" fill="#1e3266"></rect><path d="M1560 560L0 560 L0 131.18Q42.83 102.01, 72 144.85Q158.34 111.19, 192 197.53Q261.33 146.86, 312 216.18Q349.12 133.3, 432 170.41Q472.85 91.25, 552 132.1Q597.67 105.77, 624 151.45Q708.72 116.17, 744 200.89Q763.68 148.57, 816 168.25Q829.35 109.59, 888 122.94Q954.57 69.51, 1008 136.08Q1050.27 106.35, 1080 148.62Q1159.83 108.44, 1200 188.27Q1246.2 114.47, 1320 160.67Q1374.98 95.65, 1440 150.64Q1534.25 124.88, 1560 219.13z" fill="rgba(3, 24, 65, 1)"></path><path d="M1512 560L0 560 L0 300.21Q13.94 194.15, 120 208.09Q194.28 210.37, 192 284.65Q233.08 253.73, 264 294.81Q292.57 203.38, 384 231.96Q434.14 162.1, 504 212.24Q565.1 201.34, 576 262.43Q628.39 194.82, 696 247.21Q789.48 220.69, 816 314.16Q846.39 272.55, 888 302.94Q903.19 198.13, 1008 213.33Q1076.22 161.55, 1128 229.77Q1203.95 185.73, 1248 261.68Q1306.13 247.81, 1320 305.93Q1326.13 240.06, 1392 246.2Q1434.49 168.69, 1512 211.19z" fill="rgba(24, 47, 93, 1)"></path><path d="M1512 560L0 560 L0 405.14Q35.23 368.37, 72 403.59Q75.9 287.49, 192 291.39Q289.13 316.51, 264 413.64Q295.44 325.08, 384 356.52Q433.66 334.18, 456 383.84Q494.03 301.87, 576 339.89Q648.99 292.88, 696 365.87Q733.11 282.98, 816 320.09Q892.81 276.9, 936 353.71Q997.06 342.77, 1008 403.83Q1031.66 307.49, 1128 331.15Q1154.28 285.43, 1200 311.71Q1229.88 269.59, 1272 299.47Q1378.29 285.76, 1392 392.06Q1432.66 312.72, 1512 353.38z" fill="rgba(37, 70, 125, 1)"></path><path d="M1488 560L0 560 L0 404.4Q61.48 345.88, 120 407.35Q182.91 398.26, 192 461.17Q238.2 435.38, 264 481.58Q332.08 429.66, 384 497.74Q405.51 447.25, 456 468.76Q448.96 389.72, 528 382.67Q575.93 358.61, 600 406.54Q677.14 363.69, 720 440.83Q777.82 426.64, 792 484.46Q820.35 440.81, 864 469.16Q862.27 395.44, 936 393.71Q981.27 366.98, 1008 412.25Q1090.13 374.38, 1128 456.52Q1159.51 368.03, 1248 399.55Q1323.74 355.3, 1368 431.04Q1464.2 407.24, 1488 503.44z" fill="rgba(53, 108, 177, 1)"></path><path d="M1512 560L0 560 L0 532.71Q62.94 475.65, 120 538.6Q152.15 450.75, 240 482.91Q286.84 457.75, 312 504.59Q355.4 427.99, 432 471.39Q492.66 460.05, 504 520.7Q554.12 450.82, 624 500.94Q672.07 429.01, 744 477.08Q843.68 456.76, 864 556.44Q941.32 513.76, 984 591.08Q1013.66 548.74, 1056 578.4Q1065.13 467.53, 1176 476.67Q1226.93 455.61, 1248 506.54Q1293.28 479.82, 1320 525.09Q1394.74 479.83, 1440 554.57Q1446.37 488.94, 1512 495.3z" fill="white"></path></g><defs><mask id="SvgjsMask1000"><rect width="1440" height="560" fill="#ffffff"></rect></mask></defs></svg>