<svg xmlns="http://www.w3.org/2000/svg" version="1.1" xmlns:xlink="http://www.w3.org/1999/xlink" xmlns:svgjs="http://svgjs.com/svgjs" width="1440" height="560" preserveAspectRatio="none" viewBox="0 0 1440 560"><g mask="url(&quot;#SvgjsMask1133&quot;)" fill="none"><rect width="1440" height="560" x="0" y="0" fill="#1e3266"></rect><path d="M1464 560L0 560 L0 453.87Q55.28 389.15, 120 444.44Q191.31 395.75, 240 467.05Q270.97 426.02, 312 457Q341.91 414.91, 384 444.83Q433.05 421.88, 456 470.93Q508.93 403.86, 576 456.78Q629.38 390.15, 696 443.53Q767.68 395.21, 816 466.89Q845.82 424.7, 888 454.52Q954.46 400.98, 1008 467.43Q1032.47 419.9, 1080 444.38Q1146.38 390.76, 1200 457.15Q1243.67 428.82, 1272 472.5Q1319.15 399.65, 1392 446.81Q1434.24 417.06, 1464 459.3z" fill="rgba(3, 24, 65, 1)"></path><path d="M1512 560L0 560 L0 483.58Q54.54 418.12, 120 472.66Q166.99 447.65, 192 494.64Q222.86 453.5, 264 484.35Q291.25 439.6, 336 466.85Q387.24 446.09, 408 497.32Q459.44 428.76, 528 480.2Q557.85 438.05, 600 467.9Q672.15 420.05, 720 492.21Q749.83 450.03, 792 479.86Q846.66 414.52, 912 469.19Q960.1 445.29, 984 493.39Q1014.88 452.26, 1056 483.14Q1110.51 417.65, 1176 472.17Q1248.03 424.2, 1296 496.22Q1325.61 453.83, 1368 483.43Q1395.67 439.1, 1440 466.77Q1490.78 445.55, 1512 496.34z" fill="rgba(24, 47, 93, 1)"></path><path d="M1536 560L0 560 L0 502.95Q67.62 450.57, 120 518.19Q142.64 468.83, 192 491.47Q259.98 439.45, 312 507.42Q355.36 478.78, 384 522.14Q429.26 447.4, 504 492.66Q569.03 437.69, 624 502.72Q693.15 451.87, 744 521.02Q788.75 445.76, 864 490.51Q929.55 436.06, 984 501.6Q1049.22 446.82, 1104 512.05Q1162.97 451.02, 1224 510Q1276.01 442.01, 1344 494.02Q1394.03 472.05, 1416 522.07Q1470.78 456.86, 1536 511.64z" fill="rgba(37, 70, 125, 1)"></path><path d="M1488 560L0 560 L0 513.61Q68.93 462.54, 120 531.47Q162.62 502.09, 192 544.71Q236.87 469.58, 312 514.44Q355.81 486.25, 384 530.06Q425.99 500.04, 456 542.03Q481 495.03, 528 520.03Q593.01 465.04, 648 530.05Q715.41 477.46, 768 544.87Q788.82 493.69, 840 514.52Q910.01 464.53, 960 534.55Q1001.01 503.56, 1032 544.57Q1079.45 472.02, 1152 519.46Q1194.45 489.91, 1224 532.37Q1266.25 502.62, 1296 544.87Q1340.17 469.04, 1416 513.21Q1458.51 483.72, 1488 526.22z" fill="rgba(53, 108, 177, 1)"></path><path d="M1512 560L0 560 L0 556.54Q50.82 487.36, 120 538.17Q192.96 491.13, 240 564.09Q294.05 498.14, 360 552.19Q412.63 484.83, 480 537.46Q529.42 514.88, 552 564.3Q604.8 497.1, 672 549.89Q701.86 507.75, 744 537.61Q795.27 516.88, 816 568.15Q870.71 502.86, 936 557.57Q961.63 511.2, 1008 536.82Q1073.32 482.14, 1128 547.47Q1193.48 492.95, 1248 558.43Q1302.39 492.82, 1368 547.2Q1405.41 512.62, 1440 550.03Q1483.78 521.81, 1512 565.59z" fill="white"></path></g><defs><mask id="SvgjsMask1133"><rect width="1440" height="560" fill="#ffffff"></rect></mask></defs></svg>